<svg width="128" height="128" xmlns="http://www.w3.org/2000/svg" viewBox="0 0 16 16">
    <style>
        path { fill: #0074d9 }
        @media (prefers-color-scheme: dark) {
          path { fill: #ffffff; }
        }
    </style>
    <path d="M6.3758647 15.038405v-3.795064c0-.265275.2706892-.535964.5413785-.535964h2.1655143c.2706893 0 .5413786.270689.5413786.541378v3.78965a.54137857.54137857 0 0 0 .5413789.541379h4.331027a.54137857.54137857 0 0 0 .541379-.541379V7.4591055a.54137857.54137857 0 0 0-.158082-.383296l-1.466053-1.4649704V2.0453198a.54137857.54137857 0 0 0-.541379-.5413786h-1.082756a.54137857.54137857 0 0 0-.541379.5413786v1.400005L8.3832964.57926653a.54137857.54137857 0 0 0-.766592 0L1.1201614 7.0758095a.54137857.54137857 0 0 0-.1580825.383296v7.5792995a.54137857.54137857 0 0 0 .5413786.541379H5.834486a.54137857.54137857 0 0 0 .5413787-.541379z"/>
</svg>
